<svg xmlns="http://www.w3.org/2000/svg" width="2786" height="2305" viewBox="0 0 2786 2305" xmlns:xlink="http://www.w3.org/1999/xlink"><defs><linearGradient id="b" x1="0%" y1="100%" y2="100%"><stop stop-color="#6E6E6E" offset="0%"/><stop stop-color="#DCDCDC" offset="13.844258%"/><stop stop-color="#DCDCDC" offset="85.3136193%"/><stop stop-color="#6E6E6E" offset="100%"/></linearGradient><filter id="a" width="200%" height="200%" x="-50%" y="-50%" filterUnits="objectBoundingBox"><feOffset dy="2" in="SourceAlpha" result="shadowOffsetOuter1"/><feGaussianBlur stdDeviation="1" in="shadowOffsetOuter1" result="shadowBlurOuter1"/><feColorMatrix values="0 0 0 0 0 0 0 0 0 0 0 0 0 0 0 0 0 0 0.28 0" in="shadowBlurOuter1" result="shadowMatrixOuter1"/><feMerge><feMergeNode in="shadowMatrixOuter1"/><feMergeNode in="SourceGraphic"/></feMerge></filter><path id="c" d="M1812.93518 623v6c.90236 5.046658-6.9483 13.000023-66.14884 13-61.04581-.000017-248.93967-.00001-354.81876-.000004-105.87908-.000006-293.77294-.000013-354.81874.000004-59.200538.000023-67.0512-7.953342-66.073735-13L971 623h841.93518z"/><linearGradient id="d" x1="50%" x2="50%" y1="0%" y2="100%"><stop stop-color="#8C8C8C" offset="0%"/><stop stop-color="#FBFBFB" offset="55.2753991%"/><stop stop-color="#FFF" offset="59.6855253%"/><stop stop-color="gray" offset="71.5123407%"/><stop stop-color="#7F7F7F" offset="73.9270696%"/><stop stop-color="#BCBCBC" offset="81.9940534%"/><stop stop-color="#9E9E9E" offset="100%"/></linearGradient><linearGradient id="f" x1="10.4734618%" x2="91.244633%" y1="99.8787522%" y2="99.8787522%"><stop stop-color="#FFF" offset="0%"/><stop stop-color="#FFF" stop-opacity="0" offset="6.08271327%"/><stop stop-color="#FFF" stop-opacity="0" offset="92.5281824%"/><stop stop-color="#FFF" offset="100%"/></linearGradient><path id="e" d="M1688.10789 476.1103s8.43966 60.846965 23.10815 74.344028c14.66849 13.497063 98.89382 68.483058 98.89382 68.483058S1833.56355 636.000033 1746.84607 636c-61.05051-.000017-248.95884-.00001-354.84608-.000004-105.88724-.000006-293.79555-.000013-354.84606.000004-86.717476.000033-63.26379-17.062614-63.26379-17.062614s84.22533-54.985995 98.89382-68.483058c14.66849-13.497063 23.10815-74.344028 23.10815-74.344028L1117.61851 257h548.76298l21.7264 219.1103z"/><linearGradient id="h" x1="77.0009377%" x2="0%" y1="6.3069443%" y2="100%"><stop stop-color="#E4E4E4" offset="0%"/><stop stop-color="#ACACAC" offset="100%"/></linearGradient><filter id="g" width="200%" height="200%" x="-50%" y="-50%" filterUnits="objectBoundingBox"><feOffset dy="2" in="SourceAlpha" result="shadowOffsetInner1"/><feGaussianBlur in="shadowOffsetInner1" result="shadowBlurInner1"/><feComposite in="shadowBlurInner1" in2="SourceAlpha" operator="arithmetic" k2="-1" k3="1" result="shadowInnerInner1"/><feColorMatrix values="0 0 0 0 1 0 0 0 0 1 0 0 0 0 1 0 0 0 0.244344554 0" in="shadowInnerInner1" result="shadowMatrixInner1"/><feMerge><feMergeNode in="SourceGraphic"/><feMergeNode in="shadowMatrixInner1"/></feMerge></filter><path id="i" d="M2786 188.029029C2786 226.159828 2755.16684 257 2717.1322 257H68.8677979C30.8115816 257 0 226.120644 0 188.029029V0h2786v188.029029z"/><linearGradient id="j" x1="50%" x2="50%" y1="0%" y2="100%"><stop stop-color="#FFF" offset="0%"/><stop stop-color="#FFF" stop-opacity="0" offset="100%"/></linearGradient><linearGradient id="k" x1="50%" x2="50%" y1="0%" y2="100%"><stop stop-color="#151515" offset="0%"/><stop stop-color="#2C2C2C" offset="100%"/></linearGradient></defs><g fill="none" fill-rule="evenodd"><g filter="url(#a)" transform="translate(0 1659)"><use fill="url(#b)" xlink:href="#c"/><use xlink:href="#c"/></g><g transform="translate(0 1659)"><use fill="url(#d)" xlink:href="#e"/><use xlink:href="#e"/><use fill="url(#f)" fill-opacity=".45" xlink:href="#e"/></g><g filter="url(#g)" transform="translate(0 1659)"><use fill="url(#h)" xlink:href="#i"/><use xlink:href="#i"/></g><path fill="#000" d="M2717.1322 0C2755.18842 0 2786 30.8235494 2786 68.8463245V1659H0V68.8463245C0 30.8277969 30.8331633 0 68.8677979 0H2717.1322zM122.998673 113C117.476558 113 113 117.472762 113 123.001177V1542.99882c0 5.5235 4.480829 10.00118 9.998673 10.00118H2663.00133c5.52211 0 9.99867-4.47276 9.99867-10.00118V123.001177C2673 117.477679 2668.51917 113 2663.00133 113H122.998673z"/><path fill="url(#j)" d="M1588 0h1129.12868C2755.18684 0 2786 30.8235494 2786 68.8463245V1659h-276.86268L1588 0z" opacity=".1"/><g transform="translate(1381 45)"><circle cx="12.5" cy="12.5" r="12.5" fill="url(#k)"/><circle cx="12.5" cy="12.5" r="6.25" fill="#103470" fill-opacity=".5"/></g></g></svg>