<svg xmlns="http://www.w3.org/2000/svg" width="1508" height="856" viewBox="0 0 1508 856"><defs><linearGradient id="a" x1="50%" x2="50%" y1="0%" y2="100%"><stop stop-color="#96979B" offset="0%"/><stop stop-color="#2A2B2D" offset="100%"/></linearGradient><filter id="b" width="200%" height="200%" x="-50%" y="-50%" filterUnits="objectBoundingBox"><feOffset dy="2" in="SourceAlpha" result="shadowOffsetOuter1"/><feGaussianBlur stdDeviation="2" in="shadowOffsetOuter1" result="shadowBlurOuter1"/><feColorMatrix values="0 0 0 0 0 0 0 0 0 0 0 0 0 0 0 0 0 0 0.35 0" in="shadowBlurOuter1" result="shadowMatrixOuter1"/><feMerge><feMergeNode in="shadowMatrixOuter1"/><feMergeNode in="SourceGraphic"/></feMerge></filter><linearGradient id="c" x1="100%" x2="0%" y1="50%" y2="50%"><stop stop-color="#D8D8D8" offset="0%"/><stop stop-color="#DDDEE0" offset="100%"/></linearGradient><linearGradient id="d" x1="100%" x2="0%" y1="50%" y2="50%"><stop stop-color="#808185" offset="0%"/><stop stop-color="#CFD0D4" offset="2.20413551%"/><stop stop-color="#CFD0D2" offset="8.27214449%"/><stop stop-color="#949599" offset="21.8295634%"/><stop stop-color="#A7A8AC" offset="38.7107412%"/><stop stop-color="#B6B7BB" offset="43.9216973%"/><stop stop-color="#D8D8D8" offset="100%"/></linearGradient><linearGradient id="e" x1="100%" x2="0%" y1="50%" y2="50%"><stop stop-color="#DDDEE0" offset="0%"/><stop stop-color="#B1B2B4" offset="51.8130242%"/><stop stop-color="#C2C3C7" offset="80.8070065%"/><stop stop-color="#F1F3F2" offset="90.4035027%"/><stop stop-color="#E9EBEA" offset="92.9288965%"/><stop stop-color="#D4D5D7" offset="97.035345%"/><stop stop-color="#7A7B7F" offset="100%"/></linearGradient><linearGradient id="f" x1="100%" x2="0%" y1="37.2336119%" y2="37.2336116%"><stop stop-color="#949599" offset="0%"/><stop stop-color="#9E9FA3" offset="3.58222603%"/><stop stop-color="#B9BABC" offset="5.16614898%"/><stop stop-color="#E0E1E3" offset="8.56026958%"/><stop stop-color="#D8D9DB" offset="91.8293618%"/><stop stop-color="#C2C3C5" offset="94.5446582%"/><stop stop-color="#8D8E90" offset="100%"/></linearGradient><filter id="g" width="200%" height="200%" x="-50%" y="-50%" filterUnits="objectBoundingBox"><feOffset in="SourceAlpha" result="shadowOffsetInner1"/><feGaussianBlur stdDeviation=".5" in="shadowOffsetInner1" result="shadowBlurInner1"/><feComposite in="shadowBlurInner1" in2="SourceAlpha" operator="arithmetic" k2="-1" k3="1" result="shadowInnerInner1"/><feColorMatrix values="0 0 0 0 0 0 0 0 0 0 0 0 0 0 0 0 0 0 0.211009306 0" in="shadowInnerInner1" result="shadowMatrixInner1"/><feMerge><feMergeNode in="SourceGraphic"/><feMergeNode in="shadowMatrixInner1"/></feMerge></filter><linearGradient id="h" x1="50.0051073%" x2="50.0051073%" y1="98.6845533%" y2=".41810951%"><stop stop-color="#808184" offset="0%"/><stop stop-color="#F1F1F2" offset="50%"/><stop stop-color="#BBBDBF" offset="99.94%"/></linearGradient><linearGradient id="i" x1="50%" x2="50%" y1="0%" y2="100%"><stop stop-color="#151515" offset="0%"/><stop stop-color="#2C2C2C" offset="100%"/></linearGradient></defs><g fill="none" fill-rule="evenodd"><path fill="url(#a)" d="M.5 28s15.6194319 15.8216593 59.8527942 20H1436.99546s36.69948-2.7990301 60.50454-19.3103448H35.1859913L.5 28z" filter="url(#b)" transform="translate(4 801)"/><path fill="url(#c)" d="M136 0h1226v29H136z" transform="translate(4 801)"/><path fill="url(#d)" d="M1361 0h136v29h-136z" transform="translate(4 801)"/><path fill="url(#e)" d="M1 0h136v29H1z" transform="translate(4 801)"/><path fill="url(#f)" d="M644 1s.170122 12.1810732 12.151282 18h186.317701S852.718772 15.2133316 855 1H647.020168" filter="url(#g)" transform="translate(4 801)"/><g><path fill="#E5E6E7" d="M1361.16122 49.136892V801H144.5648855V49.136892c0-24.9337761 20.1767939-45.11826143 45.1010687-45.11826143H1316.06015c24.92428 0 45.10107 20.18448533 45.10107 45.11826143zM189.5746565 0c-27.1154199 0-49.11816795 22.0111356-49.11816795 49.136892V801H1365.17832V49.136892C1365.26962 22.0111356 1343.17557 0 1316.06015 0H189.5746565z"/><path fill="url(#h)" d="M1221.16122 49.136892V801H4.5648855V49.136892c0-24.9337761 20.1767939-45.11826143 45.1010687-45.11826143H1176.06015c24.92428 0 45.10107 20.18448533 45.10107 45.11826143zM49.5746565 1.82665026c-27.1154199 0-47.29221375 22.01113564-47.29221375 49.13689194V801H1223.35237V52.7901925c.09129-29.6830667-19.9029-50.5982122-47.29222-50.96354224H49.5746565z" transform="translate(140)"/><path fill="#0E1316" d="M1361.25252 801V49.136892c0-24.9337761-20.17679-45.11826143-45.10107-45.11826143H189.6659542c-24.9242748 0-45.1010687 20.18448533-45.1010687 45.11826143V801H1361.25252zM202.0037321 60C199.2402472 60 197 62.2477225 197 65.0001351V749.999865C197 752.761363 199.2368851 755 202.0037321 755H1303.99627c2.76348 0 5.00373-2.247723 5.00373-5.000135V65.0001351C1309 62.2386367 1306.76311 60 1303.99627 60H202.0037321z"/></g><g transform="translate(745 25)"><circle cx="8" cy="8" r="8" fill="url(#i)"/><circle cx="8" cy="8" r="4" fill="#103470" fill-opacity=".5"/></g></g></svg>