<?xml version="1.0" encoding="UTF-8" standalone="no"?>
<svg width="512px" height="512px" viewBox="0 0 512 512" version="1.1" xmlns="http://www.w3.org/2000/svg" xmlns:xlink="http://www.w3.org/1999/xlink">
    <!-- Generator: Sketch 3.6.1 (26313) - http://www.bohemiancoding.com/sketch -->
    <title>512x512</title>
    <desc>Created with Sketch.</desc>
    <defs></defs>
    <g id="Page-1" stroke="none" stroke-width="1" fill="none" fill-rule="evenodd">
        <g id="Group" fill="#FFFFFF">
            <path d="M96,360 L416,360 L416,384 L352,384 L380,484 L332,496 L308,384 L204,384 L180,496 L132,484 L160,384 L96,384 L96,360 Z" id="Stand"></path>
            <path d="M128,88 L304,88 C304,88 308,102 308,124 C308,146 304,168 304,168 L388,168 L388,352 L128,352 L128,88 Z" id="File-body"></path>
            <path d="M312,88 C312,88 316,106 316,124 C316,142 312,160 312,160 L384,160 L312,88 Z" id="File-corner"></path>
            <path d="M224,80 L288,80 L276,24 L236,24 L224,80 Z" id="Top"></path>
        </g>
    </g>
</svg>