<?xml version="1.0" encoding="UTF-8" standalone="no"?>
<svg width="96px" height="96px" viewBox="0 0 96 96" version="1.1" xmlns="http://www.w3.org/2000/svg" xmlns:xlink="http://www.w3.org/1999/xlink" xmlns:sketch="http://www.bohemiancoding.com/sketch/ns">
    <!-- Generator: Sketch 3.5.2 (25235) - http://www.bohemiancoding.com/sketch -->
    <title>96x96</title>
    <desc>Created with Sketch.</desc>
    <defs></defs>
    <g id="Page-1" stroke="none" stroke-width="1" fill="none" fill-rule="evenodd" sketch:type="MSPage">
        <g id="96x96" sketch:type="MSArtboardGroup" fill="#FFFFFF">
            <path d="M18,67.5 L78,67.5 L78,72 L66,72 L71.25,90.75 L62.25,93 L57.75,72 L38.25,72 L33.75,93 L24.75,90.75 L30,72 L18,72 L18,67.5 Z" id="Stand" sketch:type="MSShapeGroup"></path>
            <path d="M24,16.5 L57,16.5 C57,16.5 57.75,19.125 57.75,23.25 C57.75,27.375 57,31.5 57,31.5 L72.75,31.5 L72.75,66 L24,66 L24,16.5 Z" id="File-body" sketch:type="MSShapeGroup"></path>
            <path d="M58.5,16.5 C58.5,16.5 59.25,19.875 59.25,23.25 C59.25,26.625 58.5,30 58.5,30 L72,30 L58.5,16.5 Z" id="File-corner" sketch:type="MSShapeGroup"></path>
            <path d="M42,15 L54,15 L51.75,4.5 L44.25,4.5 L42,15 Z" id="Top" sketch:type="MSShapeGroup"></path>
        </g>
    </g>
</svg>