<?xml version="1.0" encoding="UTF-8" standalone="no"?>
<svg width="48px" height="48px" viewBox="0 0 48 48" version="1.1" xmlns="http://www.w3.org/2000/svg" xmlns:xlink="http://www.w3.org/1999/xlink" xmlns:sketch="http://www.bohemiancoding.com/sketch/ns">
    <!-- Generator: Sketch 3.5.2 (25235) - http://www.bohemiancoding.com/sketch -->
    <title>48x48</title>
    <desc>Created with Sketch.</desc>
    <defs></defs>
    <g id="Page-1" stroke="none" stroke-width="1" fill="none" fill-rule="evenodd" sketch:type="MSPage">
        <g id="48x48" sketch:type="MSArtboardGroup" fill="#333333">
            <path d="M9,34 L39,34 L39,36 L33,36 L36,46 L31,47 L29,36 L19,36 L17,47 L12,46 L15,36 L9,36 L9,34 Z" id="Stand" sketch:type="MSShapeGroup"></path>
            <path d="M12,8 L28,8 L28,16 L36,16 L36,33 L12,33 L12,8 Z" id="File-body" sketch:type="MSShapeGroup"></path>
            <path d="M29,8 L29,15 L36,15 L29,8 Z" id="File-corner" sketch:type="MSShapeGroup"></path>
            <path d="M21,7 L27,7 L26,2 L22,2 L21,7 Z" id="Top" sketch:type="MSShapeGroup"></path>
        </g>
    </g>
</svg>