<svg xmlns="http://www.w3.org/2000/svg" width="1080" height="380" viewBox="0 0 1080 380"><defs><linearGradient id="a" x1="27.663%" x2="50%" y1="0%" y2="54.174%"><stop stop-color="#EEE" offset="0%"/><stop stop-color="#D8D8D8" offset="100%"/></linearGradient><linearGradient id="b" x1="27.663%" x2="61.362%" y1="0%" y2="55.518%"><stop stop-color="#FFF" offset="0%"/><stop stop-color="#FFF" stop-opacity=".5" offset="100%"/></linearGradient></defs><g fill="none" fill-rule="evenodd"><path fill="#666" d="M890.533 204.733c-7.2.223-13.09 3.067-17.666 8.534h-8.934c-3.644 0-6.71-.9-9.2-2.7-2.49-1.8-3.733-4.434-3.733-7.9 0-15.69 2.756-23.534 8.267-23.534.266 0 1.233.467 2.9 1.4 1.666.934 3.833 1.878 6.5 2.834 2.666.955 5.31 1.433 7.933 1.433 2.978 0 5.933-.51 8.867-1.533-.223 1.644-.334 3.11-.334 4.4 0 6.177 1.8 11.866 5.4 17.066zm71.4 42.467c0 5.333-1.622 9.544-4.866 12.633-3.245 3.09-7.556 4.634-12.934 4.634h-58.266c-5.378 0-9.69-1.545-12.934-4.634-3.244-3.09-4.866-7.3-4.866-12.633 0-2.356.077-4.656.233-6.9.156-2.244.467-4.667.933-7.267.467-2.6 1.056-5.01 1.767-7.233.71-2.222 1.667-4.39 2.867-6.5 1.2-2.11 2.577-3.91 4.133-5.4 1.556-1.49 3.456-2.678 5.7-3.567 2.244-.89 4.722-1.333 7.433-1.333.445 0 1.4.478 2.867 1.433 1.467.956 3.09 2.023 4.867 3.2 1.777 1.178 4.155 2.245 7.133 3.2 2.978.956 5.978 1.434 9 1.434 3.022 0 6.022-.478 9-1.434 2.978-.955 5.356-2.022 7.133-3.2 1.778-1.177 3.4-2.244 4.867-3.2 1.467-.955 2.422-1.433 2.867-1.433 2.71 0 5.19.444 7.433 1.333 2.244.89 4.144 2.078 5.7 3.567 1.556 1.49 2.933 3.29 4.133 5.4 1.2 2.11 2.156 4.278 2.867 6.5.71 2.222 1.3 4.633 1.767 7.233.466 2.6.777 5.023.933 7.267.156 2.244.233 4.544.233 6.9zm-68.266-85.133c0 4.71-1.667 8.733-5 12.066-3.334 3.334-7.356 5-12.067 5-4.71 0-8.733-1.666-12.067-5-3.333-3.333-5-7.355-5-12.066 0-4.71 1.667-8.734 5-12.067 3.334-3.333 7.356-5 12.067-5 4.71 0 8.733 1.667 12.067 5 3.333 3.333 5 7.356 5 12.067zm46.933 25.6c0 7.066-2.5 13.1-7.5 18.1-5 5-11.033 7.5-18.1 7.5-7.067 0-13.1-2.5-18.1-7.5-5-5-7.5-11.034-7.5-18.1 0-7.067 2.5-13.1 7.5-18.1 5-5 11.033-7.5 18.1-7.5 7.067 0 13.1 2.5 18.1 7.5 5 5 7.5 11.033 7.5 18.1zm38.4 15c0 3.466-1.244 6.1-3.733 7.9-2.49 1.8-5.556 2.7-9.2 2.7h-8.934c-4.577-5.467-10.466-8.31-17.666-8.534 3.6-5.2 5.4-10.89 5.4-17.066 0-1.29-.11-2.756-.334-4.4 2.934 1.022 5.89 1.533 8.867 1.533 2.622 0 5.267-.478 7.933-1.433 2.667-.956 4.834-1.9 6.5-2.834 1.667-.933 2.634-1.4 2.9-1.4 5.51 0 8.267 7.845 8.267 23.534zm-8.533-40.6c0 4.71-1.667 8.733-5 12.066-3.334 3.334-7.356 5-12.067 5-4.71 0-8.733-1.666-12.067-5-3.333-3.333-5-7.355-5-12.066 0-4.71 1.667-8.734 5-12.067 3.334-3.333 7.356-5 12.067-5 4.71 0 8.733 1.667 12.067 5 3.333 3.333 5 7.356 5 12.067zM283 157.385v81.23c0 7.077-2.538 13.154-7.615 18.23-5.077 5.078-11.154 7.617-18.23 7.617h-140.31c-7.076 0-13.153-2.54-18.23-7.616C93.538 251.77 91 245.692 91 238.616v-110.77c0-7.077 2.538-13.154 7.615-18.23 5.077-5.078 11.154-7.616 18.23-7.616h36.924c7.076 0 13.153 2.538 18.23 7.615s7.615 11.154 7.615 18.23v3.693h77.54c7.076 0 13.153 2.54 18.23 7.616 5.077 5.077 7.615 11.154 7.615 18.23zM158.5 187.98l28.5 17.597-19.73 16.442L139 203.614l19.5-15.634zM215.385 220v6.23l-28.27 16.905v.057l-.057-.057-.058.057v-.057l-28.212-16.904V220l8.48 5.538L187 209.154v-.116l.058.058.057-.058v.116l19.79 16.384 8.48-5.538zm-48.116-66L187 170.442l-28.5 17.54-19.5-15.578L167.27 154zm48.23 33.98l19.5 15.635-28.212 18.404L187 205.576l28.5-17.596zM206.788 154L235 172.404l-19.5 15.577-28.5-17.538L206.788 154z"/><path fill="#666" stroke="#979797" stroke-width="10" d="M307 187h113M420 187l-10.8-3v6l10.8-3z"/><g stroke="#9B9B9B"><path d="M455 354h6" stroke-linecap="square"/><path fill="url(#a)" fill-opacity=".5" d="M227 75.27v179.46L0 330V0l227 75.27z" transform="translate(454 25)"/><path d="M455 26h6" stroke-linecap="square"/></g><path fill="url(#a)" fill-opacity=".5" stroke="#9B9B9B" d="M221.5 75.27v179.46L.5 330V0l221 75.27z" transform="translate(460.5 25)"/><path fill="url(#b)" d="M7.5 246.628V0l218.517 74.543C104.042 197.933 17.02 242.007 7.5 246.628z" opacity=".5" transform="translate(454 25)"/><path fill="#555" d="M515.41 256.89l.03 10.302 8.927-1.68.034 3.177-8.95 1.75.038 12.668-3.007.672-.01-29.68 13.256-2.08.037 3.165-10.352 1.704zm14.353 23.015l-.302-20.114 2.683-.475.347 19.977-2.727.613zm2.324-25.12c-.17.26-.37.474-.6.644-.227.17-.47.277-.73.32-.262.045-.506.02-.733-.075-.227-.094-.43-.243-.61-.445-.178-.202-.32-.445-.424-.726-.104-.282-.16-.595-.164-.94-.005-.344.04-.68.136-1.008.095-.327.228-.62.4-.88.17-.26.367-.472.59-.64.222-.167.463-.27.722-.31.26-.042.505-.014.737.082.232.095.437.244.616.447.178.202.323.45.433.74.11.293.167.61.174.95.006.342-.04.67-.14.982-.1.313-.236.6-.407.858zm5.51 23.355l-.62-28.674 2.655-.414.684 28.475-2.718.613zm17.55-21.012c.587.607 1.057 1.402 1.412 2.384.354.98.558 2.136.61 3.465.02.517-.013.87-.096 1.062-.084.19-.25.31-.502.362l-10.167 2.063c.056 1.213.218 2.244.487 3.093.27.847.625 1.525 1.068 2.034.444.507.963.844 1.56 1.01.596.168 1.258.17 1.986.01.678-.15 1.258-.376 1.742-.678.483-.3.897-.6 1.242-.902.345-.3.633-.573.863-.816.23-.243.43-.383.602-.42.222-.05.397.02.526.203l.803 1.035c-.314.567-.696 1.084-1.147 1.552-.45.47-.938.882-1.46 1.237-.523.356-1.066.658-1.63.905-.562.246-1.122.434-1.68.56-1.063.242-2.052.242-2.963-.002-.91-.247-1.706-.732-2.386-1.456-.678-.727-1.217-1.695-1.617-2.904-.4-1.21-.622-2.654-.667-4.326-.037-1.353.092-2.648.387-3.885.294-1.235.734-2.338 1.32-3.31.587-.968 1.313-1.775 2.178-2.42.865-.643 1.846-1.06 2.944-1.257.908-.16 1.753-.12 2.535.122.782.24 1.465.666 2.05 1.276zm-8.714 7.21l8.3-1.642c-.027-.768-.138-1.455-.332-2.06-.192-.606-.463-1.11-.81-1.515-.346-.403-.762-.69-1.245-.856-.484-.168-1.03-.196-1.64-.084-1.29.238-2.292.895-3.004 1.972-.713 1.082-1.136 2.477-1.267 4.185zm23.717-8.17c-.15.028-.315-.015-.497-.13-.18-.117-.41-.238-.688-.366-.277-.13-.61-.232-1.002-.31-.39-.078-.863-.065-1.42.038-.737.137-1.382.417-1.935.842-.553.426-1.01.978-1.366 1.655-.357.68-.615 1.468-.772 2.367-.158.9-.214 1.884-.168 2.953.05 1.117.197 2.087.445 2.91.25.822.577 1.486.985 1.99.408.503.893.848 1.455 1.035.562.185 1.185.202 1.87.05.652-.145 1.185-.358 1.598-.636.413-.28.755-.562 1.024-.85.27-.288.49-.544.66-.767.173-.225.348-.356.53-.395.23-.05.405.013.525.19l.812.988c-.614 1.106-1.407 1.995-2.38 2.666-.974.673-2.015 1.137-3.123 1.39-.957.22-1.856.212-2.696-.024-.84-.238-1.58-.693-2.22-1.367-.638-.677-1.155-1.57-1.55-2.68-.397-1.11-.625-2.426-.687-3.943-.055-1.382.05-2.692.317-3.926.266-1.232.683-2.328 1.25-3.288.568-.956 1.284-1.75 2.15-2.383.863-.63 1.866-1.048 3.01-1.252 1.05-.188 1.995-.15 2.83.115.834.262 1.583.71 2.247 1.34l-.643 1.266c-.072.144-.147.26-.223.346-.076.086-.188.144-.337.172zm14.328 11.16c-.166-.055-.283-.225-.35-.51l-.4-1.544c-.375.5-.742.958-1.102 1.37-.36.414-.744.78-1.15 1.1-.408.32-.846.594-1.315.82-.47.224-.994.403-1.575.537-.592.137-1.15.168-1.68.095-.526-.075-.99-.262-1.393-.56-.402-.302-.732-.723-.99-1.265-.256-.543-.406-1.22-.45-2.03-.037-.706.092-1.42.387-2.14.294-.72.794-1.41 1.5-2.064.705-.652 1.642-1.26 2.81-1.82 1.165-.558 2.6-1.032 4.308-1.424l-.083-1.355c-.083-1.35-.396-2.32-.938-2.92-.543-.598-1.304-.807-2.285-.624-.644.12-1.18.317-1.61.59-.432.274-.8.56-1.11.86-.31.3-.576.568-.798.805-.223.237-.45.377-.677.42-.18.035-.34.01-.48-.076-.14-.086-.253-.203-.342-.352l-.53-.91c.782-1.105 1.64-1.976 2.575-2.617.935-.638 1.985-1.06 3.153-1.27.84-.15 1.596-.125 2.268.08.673.2 1.25.545 1.73 1.033.48.487.86 1.112 1.14 1.875.278.763.448 1.626.51 2.59l.7 11.027-1.184.272c-.26.06-.473.062-.638.007zm-2.866-1.748c.333-.277.648-.594.945-.95.298-.356.585-.75.86-1.18l-.22-3.62c-1.222.3-2.256.628-3.102.985-.846.358-1.53.74-2.053 1.142-.522.404-.895.83-1.117 1.278-.223.448-.32.918-.294 1.408.027.466.114.854.263 1.164.15.31.34.547.572.713.232.167.5.266.807.297.306.032.634.008.985-.07.47-.106.897-.257 1.28-.454.384-.197.743-.434 1.075-.713zm9.158-16.777c.375-.068.626.095.753.49l.334 1.797c.595-.933 1.276-1.722 2.044-2.367.768-.642 1.678-1.058 2.73-1.248.818-.147 1.55-.127 2.197.06.647.184 1.2.51 1.66.98.46.468.83 1.065 1.105 1.79.276.724.45 1.55.523 2.476l.814 10.43-2.653.614-.796-10.517c-.094-1.25-.426-2.17-.996-2.762-.57-.594-1.385-.793-2.45-.593-.778.146-1.49.492-2.136 1.04-.647.548-1.23 1.238-1.754 2.07l.863 12.44-2.662.614-1.143-17.03 1.568-.283zm15.166-2.573c.147.092.256.212.328.36l4.658 9.567c.17.347.31.7.422 1.06.112.36.218.716.318 1.068.048-.384.1-.775.156-1.17.056-.397.137-.798.243-1.205l2.936-10.925c.044-.176.127-.33.25-.463.122-.132.28-.216.476-.252l2.04-.372-4.684 16.958-2.388.555-7.433-14.87 2.15-.392c.205-.037.382-.01.53.082zm23.788 10.658c-.15-.053-.254-.204-.307-.453l-.317-1.35c-.364.42-.72.804-1.07 1.15-.35.345-.717.65-1.106.914-.39.263-.805.485-1.248.664-.443.18-.937.317-1.48.414-.555.098-1.075.106-1.562.024-.486-.083-.91-.26-1.274-.535-.363-.275-.655-.653-.875-1.133-.22-.48-.337-1.075-.35-1.78-.01-.615.133-1.23.432-1.848.298-.615.786-1.194 1.464-1.736.68-.54 1.57-1.033 2.672-1.475 1.103-.44 2.454-.8 4.053-1.074l-.03-1.175c-.03-1.17-.286-2.025-.77-2.563-.483-.54-1.183-.75-2.1-.632-.604.08-1.11.228-1.52.448-.41.22-.763.455-1.06.703-.298.248-.555.47-.77.668-.215.197-.43.31-.643.34-.168.02-.315-.007-.443-.087-.128-.08-.23-.185-.307-.318l-.463-.813c.765-.928 1.593-1.65 2.485-2.168.89-.516 1.882-.84 2.975-.974.787-.097 1.49-.044 2.107.16.618.2 1.14.522 1.57.963.43.44.762.996.994 1.667.233.67.36 1.423.383 2.26l.263 9.56-1.11.195c-.242.043-.44.038-.592-.014zm-2.386-1.6c.32-.23.623-.494.912-.793.288-.298.57-.63.842-.994l-.08-3.144c-1.147.216-2.12.463-2.92.742-.8.28-1.45.585-1.95.916-.5.332-.86.69-1.082 1.07-.223.382-.33.787-.32 1.214.007.406.075.747.202 1.02.128.275.297.49.508.642.21.152.457.248.74.286.283.038.59.03.918-.028.44-.075.843-.19 1.206-.35.364-.157.705-.35 1.024-.58zm13.388-13.11c-.163-.066-.36-.138-.594-.213-.233-.076-.507-.133-.823-.17-.316-.04-.683-.01-1.102.086-.362.084-.682.213-.962.39-.28.175-.514.382-.702.62-.188.24-.325.497-.41.776-.086.28-.116.567-.09.864.035.373.153.662.357.867.205.204.465.36.78.47.314.106.668.182 1.06.226.39.044.793.094 1.207.15.413.057.818.132 1.214.224.398.093.758.24 1.083.446.325.204.597.485.817.844.22.357.358.82.412 1.387.063.65.02 1.28-.13 1.89-.148.61-.4 1.173-.758 1.69-.357.518-.81.976-1.364 1.373-.552.4-1.204.706-1.957.92-.86.245-1.652.3-2.378.168-.727-.135-1.357-.396-1.89-.782l.424-1.125c.053-.143.12-.26.204-.352.083-.092.198-.157.343-.197.146-.04.306-.015.48.076.174.09.384.185.63.285.244.1.537.172.877.215.34.043.757-.004 1.25-.14.42-.117.783-.283 1.086-.498.304-.215.55-.46.74-.733.19-.274.322-.566.397-.875.074-.31.096-.624.066-.943-.037-.394-.16-.697-.364-.907-.207-.21-.468-.37-.784-.475-.315-.107-.67-.18-1.067-.217-.397-.04-.802-.084-1.216-.133-.413-.05-.82-.125-1.222-.224-.4-.098-.765-.26-1.09-.482-.325-.224-.598-.532-.82-.926-.22-.395-.358-.906-.413-1.533-.05-.56-.002-1.122.146-1.683.148-.56.39-1.077.725-1.55.336-.473.763-.884 1.28-1.233.52-.35 1.124-.6 1.815-.752.804-.177 1.54-.188 2.205-.035.667.153 1.257.432 1.772.84l-.395 1.02c-.077.226-.216.364-.417.41-.12.03-.262.01-.424-.058zm-26.14-49.13v5.224l-13.717.358 6 22.142-10.287 3.733-5.143-25.63-22.288.58-5.143 28.398-10.288-2.055 6-26.097-13.715.358v-6.352l68.578-.658zm-24.003-63.457s.857 3.422.857 8.56c0 5.14-.857 10.172-.857 10.172l18 2.196v40.813l-55.718.23v-68.638l37.718 6.67zm2.57 8.82c0 4.184-.856 8.258-.856 8.258l15.43 1.967-15.43-18.74s.857 4.333.857 8.516zm-6-11.318l-2.57-13.81-8.573-1.892-2.572 13.202 13.716 2.5z"/><path fill="#666" stroke="#979797" stroke-width="10" d="M657 187h133M790 187l-10.8-3v6l10.8-3z"/></g></svg>