<?xml version="1.0" encoding="UTF-8" standalone="no"?>
<svg width="69px" height="112px" viewBox="0 0 69 112" version="1.1" xmlns="http://www.w3.org/2000/svg" xmlns:xlink="http://www.w3.org/1999/xlink" xmlns:sketch="http://www.bohemiancoding.com/sketch/ns">
    <!-- Generator: Sketch 3.3.3 (12072) - http://www.bohemiancoding.com/sketch -->
    <title>Artboard 1</title>
    <desc>Created with Sketch.</desc>
    <defs></defs>
    <g id="Page-1" stroke="none" stroke-width="1" fill="none" fill-rule="evenodd" sketch:type="MSPage">
        <g id="Artboard-1" sketch:type="MSArtboardGroup">
            <rect id="title" fill="#FFFFFF" sketch:type="MSShapeGroup" x="0" y="88" width="69" height="24"></rect>
            <path d="M69,0 L69,86 L0,86 L0,0 L69,0 Z M0,0 L26,0 L26,24 L0,24 L0,0 Z M22,4 L22,20 L6,20 L22,4 Z" id="page" fill="#FFFFFF" sketch:type="MSShapeGroup"></path>
            <path d="M12,71 L57,71 L57,74 L12,74 L12,71 Z M12,61 L57,61 L57,64 L12,64 L12,61 Z M12,51 L57,51 L57,54 L12,54 L12,51 Z M12,41 L57,41 L57,44 L12,44 L12,41 Z M12,31 L57,31 L57,34 L12,34 L12,31 Z M30,21 L57,21 L57,24 L30,24 L30,21 Z" id="lines" fill="#000000" sketch:type="MSShapeGroup"></path>
            <text id="TITLE" sketch:type="MSTextLayer" font-family="Helvetica Neue" font-size="13" font-weight="420" sketch:alignment="middle" fill="#000000">
                <tspan x="17.158" y="105">TITLE</tspan>
            </text>
        </g>
    </g>
</svg>